<svg xmlns="http://www.w3.org/2000/svg" viewBox="0 0 372.35 54.18"><defs><style>.cls-1{fill:#8bc540;}.cls-2{font-size:39.61px;fill:#231f20;font-family:BerlinSansFB-Reg, Berlin Sans FB;}</style></defs><title>coverVector</title><g id="Layer_2" data-name="Layer 2"><g id="Layer_1-2" data-name="Layer 1"><path class="cls-1" d="M332.18,37.64S348.86,53.8,372.35,35c0,0-20.14-24.16-39.86-.79,0,0,15.07,1.86,21.61,0C354.1,34.13,339.64,39.74,332.18,37.64Z"/><path class="cls-1" d="M335,28.49S350.41,19.18,342.41,0c0,0-21.89,10.57-9.8,27.77,0,0,4.82-10.27,5-15.12C337.59,12.65,338.24,23.58,335,28.49Z"/><path class="cls-1" d="M347.43,22.5s12.13,0,14.56-16.35c0,0-16.28-1.84-15.66,14.86,0,0,6.47-5,8.32-8.24C354.65,12.77,351.05,20.48,347.43,22.5Z"/><text class="cls-2" transform="translate(0 46.13) scale(0.99 1)">Pametno z odpadki</text></g></g></svg>